<svg id="Layer_1" data-name="Layer 1" xmlns="http://www.w3.org/2000/svg" width="1000" height="1000" viewBox="0 0 1000 1000"><defs><style>.cls-1,.cls-5{font-size:26px;font-family:GoudyOldStyleT-Bold, Goudy Old Style;font-weight:700;}.cls-1,.cls-3,.cls-4,.cls-5,.cls-6{fill:#fff;}.cls-1,.cls-2,.cls-4,.cls-5,.cls-6{stroke:#fff;}.cls-1,.cls-2,.cls-3,.cls-4,.cls-5,.cls-6{stroke-miterlimit:10;}.cls-1{stroke-width:0.5px;}.cls-2{fill:none;stroke-width:7px;}.cls-3{stroke:#ba943b;}.cls-3,.cls-6{stroke-width:0.75px;}.cls-4,.cls-5{stroke-width:0.25px;}</style></defs><text class="cls-1" transform="matrix(0.83, -0.56, 0.56, 0.83, 430.16, 412.14)">S</text><text class="cls-1" transform="matrix(0.94, -0.35, 0.35, 0.94, 448.95, 400.31)">U</text><text class="cls-1" transform="translate(477.52 391.06) rotate(-5.36)">N</text><text class="cls-1" transform="translate(506.72 389.94) rotate(6.13)"> </text><text class="cls-1" transform="matrix(0.96, 0.3, -0.3, 0.96, 522.64, 392.02)">V</text><text class="cls-1" transform="matrix(0.87, 0.5, -0.5, 0.87, 546.17, 400.12)">A</text><text class="cls-1" transform="translate(569.14 414.83) rotate(43.07)">L</text><text class="cls-1" transform="translate(585.9 431.42) rotate(56.54)">U</text><text class="cls-1" transform="translate(600.67 455.8) rotate(70.44)">A</text><text class="cls-1" transform="translate(608.48 480.85) rotate(83.53)">T</text><text class="cls-1" transform="translate(610.12 507.01) rotate(94.92)">I</text><text class="cls-1" transform="matrix(-0.3, 0.96, -0.96, -0.3, 608.09, 525.57)">O</text><text class="cls-1" transform="translate(598.21 553.28) rotate(122.2)">N</text><line class="cls-2" x1="499.89" y1="734.17" x2="499.89" y2="652.43"/><line class="cls-2" x1="499.89" y1="773.1" x2="499.89" y2="745.86"/><line class="cls-2" x1="499.89" y1="268.55" x2="499.89" y2="350.29"/><line class="cls-2" x1="499.89" y1="229.62" x2="499.89" y2="256.86"/><line class="cls-2" x1="732.92" y1="501.36" x2="651.17" y2="501.36"/><line class="cls-2" x1="771.85" y1="501.36" x2="744.6" y2="501.36"/><path class="cls-2" d="M584.88,587.05A120.69,120.69,0,0,1,414.2,416.37"/><line class="cls-2" x1="303.8" y1="418.16" x2="358.43" y2="443.77"/><line class="cls-2" x1="302.41" y1="581.19" x2="359.15" y2="560.67"/><line class="cls-2" x1="416.7" y1="697.45" x2="442.31" y2="642.82"/><line class="cls-2" x1="579.72" y1="698.85" x2="559.2" y2="642.11"/><line class="cls-2" x1="695.99" y1="584.56" x2="641.36" y2="558.95"/><line class="cls-2" x1="697.38" y1="421.53" x2="640.64" y2="442.05"/><line class="cls-2" x1="583.09" y1="305.27" x2="557.48" y2="359.9"/><line class="cls-2" x1="420.06" y1="303.87" x2="440.59" y2="360.61"/><line class="cls-2" x1="307.74" y1="309.21" x2="393.07" y2="394.54"/><line class="cls-2" x1="267.08" y1="501.36" x2="348.83" y2="501.36"/><line class="cls-2" x1="228.15" y1="501.36" x2="255.4" y2="501.36"/><line class="cls-2" x1="307.74" y1="693.51" x2="393.07" y2="608.18"/><line class="cls-2" x1="692.05" y1="693.51" x2="606.72" y2="608.18"/><line class="cls-2" x1="692.05" y1="309.21" x2="606.72" y2="394.54"/><rect class="cls-3" x="515.7" y="497.27" width="4.23" height="4.23"/><rect class="cls-3" x="507.31" y="497.27" width="4.23" height="4.23"/><rect class="cls-3" x="515.7" y="489.16" width="4.23" height="4.23"/><rect class="cls-3" x="507.31" y="489.16" width="4.23" height="4.23"/><rect class="cls-4" x="447.74" y="484.41" width="34" height="4.5" transform="translate(-204.34 414.85) rotate(-40.19)"/><polygon class="cls-4" points="468.35 534.83 449.5 534.83 449.5 496.58 476.21 474.02 502.12 495.91 499.22 499.35 476.21 479.92 454 498.67 454 530.33 468.35 530.33 468.35 534.83"/><polygon class="cls-4" points="509.64 551.97 505.14 551.97 505.14 534.75 504.99 511.5 523.68 511.5 523.68 534.75 519.18 534.75 519.18 516 509.52 516 509.64 534.74 509.64 551.97"/><rect class="cls-4" x="526.81" y="450.29" width="4.5" height="44.42" transform="translate(-173.31 571.66) rotate(-49.8)"/><polygon class="cls-4" points="548.28 534.74 523.35 534.74 523.35 530.24 543.78 530.24 543.78 487.88 510.65 459.88 513.55 456.45 548.28 485.79 548.28 534.74"/><rect class="cls-4" x="479.84" y="468.88" width="39.91" height="4.5" transform="translate(-186.04 433.9) rotate(-40.2)"/><path class="cls-4" d="M502.92,534.83H478.85v-49l5.7-4.8,18.37,15.52Zm-19.57-4.5h15.07V498.67L484.55,487l-1.2,1Z"/><rect class="cls-4" x="479.84" y="468.88" width="39.91" height="4.5" transform="translate(-186.04 433.9) rotate(-40.2)"/><rect class="cls-4" x="500.67" y="530.33" width="2.11" height="4.5"/><path class="cls-4" d="M507.26,566.74l-10.42-10.41,10.42-10.41,10.41,10.41Zm-4.05-10.41,4.05,4,4-4-4-4.05Z"/><text class="cls-5" transform="matrix(0.83, -0.56, 0.56, 0.83, 430.16, 412.14)">S</text><text class="cls-5" transform="matrix(0.94, -0.35, 0.35, 0.94, 448.95, 400.31)">U</text><text class="cls-5" transform="translate(477.52 391.06) rotate(-5.36)">N</text><text class="cls-5" transform="translate(506.72 389.94) rotate(6.13)"> </text><text class="cls-5" transform="matrix(0.96, 0.3, -0.3, 0.96, 522.64, 392.02)">V</text><text class="cls-5" transform="matrix(0.87, 0.5, -0.5, 0.87, 546.17, 400.12)">A</text><text class="cls-5" transform="translate(569.14 414.83) rotate(43.07)">L</text><text class="cls-5" transform="translate(585.9 431.42) rotate(56.54)">U</text><text class="cls-5" transform="translate(600.67 455.8) rotate(70.44)">A</text><text class="cls-5" transform="translate(608.48 480.85) rotate(83.53)">T</text><text class="cls-5" transform="translate(610.12 507.01) rotate(94.92)">I</text><text class="cls-5" transform="matrix(-0.3, 0.96, -0.96, -0.3, 608.09, 525.57)">O</text><text class="cls-5" transform="translate(598.21 553.28) rotate(122.2)">N</text><line class="cls-2" x1="499.89" y1="734.17" x2="499.89" y2="652.43"/><line class="cls-2" x1="499.89" y1="773.1" x2="499.89" y2="745.86"/><line class="cls-2" x1="499.89" y1="268.55" x2="499.89" y2="350.29"/><line class="cls-2" x1="499.89" y1="229.62" x2="499.89" y2="256.86"/><line class="cls-2" x1="732.92" y1="501.36" x2="651.17" y2="501.36"/><line class="cls-2" x1="771.85" y1="501.36" x2="744.6" y2="501.36"/><path class="cls-2" d="M584.88,587.05A120.69,120.69,0,0,1,414.2,416.37"/><line class="cls-2" x1="303.8" y1="418.16" x2="358.43" y2="443.77"/><line class="cls-2" x1="302.41" y1="581.19" x2="359.15" y2="560.67"/><line class="cls-2" x1="416.7" y1="697.45" x2="442.31" y2="642.82"/><line class="cls-2" x1="579.72" y1="698.85" x2="559.2" y2="642.11"/><line class="cls-2" x1="695.99" y1="584.56" x2="641.36" y2="558.95"/><line class="cls-2" x1="697.38" y1="421.53" x2="640.64" y2="442.05"/><line class="cls-2" x1="583.09" y1="305.27" x2="557.48" y2="359.9"/><line class="cls-2" x1="420.06" y1="303.87" x2="440.59" y2="360.61"/><line class="cls-2" x1="307.74" y1="309.21" x2="393.07" y2="394.54"/><line class="cls-2" x1="267.08" y1="501.36" x2="348.83" y2="501.36"/><line class="cls-2" x1="228.15" y1="501.36" x2="255.4" y2="501.36"/><line class="cls-2" x1="307.74" y1="693.51" x2="393.07" y2="608.18"/><line class="cls-2" x1="692.05" y1="693.51" x2="606.72" y2="608.18"/><line class="cls-2" x1="692.05" y1="309.21" x2="606.72" y2="394.54"/><rect class="cls-6" x="515.7" y="497.27" width="4.23" height="4.23"/><rect class="cls-6" x="507.31" y="497.27" width="4.23" height="4.23"/><rect class="cls-6" x="515.7" y="489.16" width="4.23" height="4.23"/><rect class="cls-6" x="507.31" y="489.16" width="4.23" height="4.23"/><rect class="cls-4" x="447.74" y="484.41" width="34" height="4.5" transform="translate(-204.34 414.85) rotate(-40.19)"/><polygon class="cls-4" points="468.35 534.83 449.5 534.83 449.5 496.58 476.21 474.02 502.12 495.91 499.22 499.35 476.21 479.92 454 498.67 454 530.33 468.35 530.33 468.35 534.83"/><polygon class="cls-4" points="509.64 551.97 505.14 551.97 505.14 534.75 504.99 511.5 523.68 511.5 523.68 534.75 519.18 534.75 519.18 516 509.52 516 509.64 534.74 509.64 551.97"/><rect class="cls-4" x="526.81" y="450.29" width="4.5" height="44.42" transform="translate(-173.31 571.66) rotate(-49.8)"/><polygon class="cls-4" points="548.28 534.74 523.35 534.74 523.35 530.24 543.78 530.24 543.78 487.88 510.65 459.88 513.55 456.45 548.28 485.79 548.28 534.74"/><rect class="cls-4" x="479.84" y="468.88" width="39.91" height="4.5" transform="translate(-186.04 433.9) rotate(-40.2)"/><path class="cls-4" d="M502.92,534.83H478.85v-49l5.7-4.8,18.37,15.52Zm-19.57-4.5h15.07V498.67L484.55,487l-1.2,1Z"/><rect class="cls-4" x="479.84" y="468.88" width="39.91" height="4.5" transform="translate(-186.04 433.9) rotate(-40.2)"/><rect class="cls-4" x="500.67" y="530.33" width="2.11" height="4.5"/><path class="cls-4" d="M507.26,566.74l-10.42-10.41,10.42-10.41,10.41,10.41Zm-4.05-10.41,4.05,4,4-4-4-4.05Z"/></svg>